<svg viewBox="0 0 64 64" fill="none" width="32" height="32" xmlns="http://www.w3.org/2000/svg" xmlns:xlink="http://www.w3.org/1999/xlink">
    <style>
        :root, .palette0 {color: currentColor;
            --color0: #2e2f42;
            --color1: #4d5ae5;
            --color2: #f4f4fd;
        }
    </style>
    <path fill="var(--color0, #2e2f42)" d="M61.5463 44.1952 44.6599 27.1851l1.8741-9.231c0.4836 0.1888 0.9978 0.2875 1.5168 0.2912h0.0128c2.3846 0.0282 4.3404-1.882 4.3687-4.2665s-1.882-4.3404-4.2665-4.3687c-2.3846-0.0281-4.3404 1.882-4.3687 4.2666-6e-3 0.5102 0.0784 1.0174 0.2495 1.4982l-9.92 1.2107L17.9452 0.32C17.7467 0.1175 17.4757 23e-4 17.1921 0c-0.28 15e-4-0.5481 0.1129-0.7466 0.3104l-3.0251 3.008c-0.4164 0.4165-0.4164 1.0917 0 1.5083l1.6277 1.6512c-6.3061 11.5958-4.2578 25.9556 5.039 35.3258 0.0853 0.0816 0.1842 0.1476 0.2922 0.1952-0.0672 0.361-0.1022 0.7272-0.1045 1.0944v12.3734h-12.8C4.5308 55.4701 2.145 57.856 2.1415 60.8l0 2.1333C2.1415 63.5224 2.6191 64 3.2082 64h49.0666c0.5891 0 1.0667-0.4776 1.0667-1.0667V60.8c-35e-4-2.944-2.3893-5.3299-5.3333-5.3333h-12.8v-5.4838c2.0052 0.4206 4.0482 0.635 6.097 0.64 4.9163-53e-4 9.7543-1.2309 14.08-3.5669l1.6363 1.6459c0.1985 0.2025 0.4695 0.3177 0.7531 0.32 0.28-15e-4 0.5481-0.113 0.7466-0.3104l3.0251-3.008c0.4164-0.4166 0.4164-1.0918 0-1.5083zM46.5596 12.4661c0.8354-0.8309 2.1862-0.8272 3.017 82e-4 0.8309 0.8353 0.8272 2.1861-82e-4 3.0169-0.3998 0.3977-0.9409 0.6209-1.5049 0.6208h-64e-4c-1.1781-61e-4-2.1284-0.9661-2.1223-2.1444 3e-3-0.564 0.2291-1.1037 0.629-1.5015zM44.0487 19.4752l-1.1968 5.8912-2.351-2.3648zM42.837 17.6715l-3.84 3.8176-2.9707-2.9867zM48.0082 57.6c1.7673 0 3.2 1.4327 3.2 3.2v1.0667H4.2748l0-1.0667c0-1.7673 1.4327-3.2 3.2-3.2zM33.0748 53.3333v2.1334H22.4081v-2.1334zM22.4081 51.2v-8.1067c0-2.5877 2.3926-4.6933 5.3334-4.6933s5.3333 2.1056 5.3333 4.6933V51.2zM35.2082 47.808v-4.7147c0-3.7642-3.3494-6.8266-7.4667-6.8266-2.6622-0.0408-5.1515 1.3142-6.5622 3.5722-8.1154-8.5476-9.9429-21.2904-4.5572-31.7742l37.2037 37.4169c-5.7448 2.9224-12.3303 3.7452-18.6176 2.3264zM57.7863 46.4405l-1.5029-1.5114L17.1815 5.5915 15.6721 4.0789l1.5094-1.504 15.8698 15.9595c75e-4 0 0.0118 0.0139 0.0193 0.0192l26.2293 26.3829z" />
    <path fill="var(--color1, #4d5ae5)" d="M27.7511 40.5333h-96e-4c-1.7673-27e-4-3.2021 1.4279-3.2048 3.1952s1.4279 3.2021 3.1952 3.2048h96e-4c1.7673 27e-4 3.2021-1.4279 3.2048-3.1952 26e-4-1.7673-1.4279-3.2021-3.1952-3.2048zM28.4978 44.4896c-0.2008 0.1997-0.473 0.3114-0.7563 0.3104-0.5891-31e-4-1.0641-0.4831-1.0611-1.0722 15e-4-0.282 0.1146-0.5518 0.3144-0.7508 0.1986-0.1974 0.4667-0.3089 0.7467-0.3104 0.5891 31e-4 1.0641 0.4831 1.0611 1.0722-15e-4 0.282-0.1146 0.5518-0.3144 0.7508z" />
</svg>