<svg viewBox="0 0 64 64" fill="var(--color1, #4d5ae5)" width="32" height="32" xmlns="http://www.w3.org/2000/svg" xmlns:xlink="http://www.w3.org/1999/xlink">
    <style>
        :root, .palette0 {color: currentColor;
            --color0: #2e2f42;
            --color1: #4d5ae5;
            --color2: #f4f4fd;
        }
    </style>
    <path d="M63.9481 9.0481c-0.1259-0.3851-0.4586-0.6666-0.8608-0.7254L59.2665 7.767 57.5566 4.3046c-0.3583-0.7297-1.5541-0.7297-1.9125-1e-4L53.9342 7.767 50.1133 8.3229c-0.4021 0.0586-0.7349 0.3392-0.8619 0.7253-0.1248 0.3862-0.0214 0.8107 0.2699 1.0934l2.7659 2.6956-0.6528 3.8059c-0.0682 0.4 0.096 0.8043 0.4235 1.0433 0.3318 0.2411 0.7648 0.2709 1.1243 0.081l3.4177-1.7974 3.4177 1.7974c0.1557 0.0821 0.3275 0.1226 0.4971 0.1226 0.2207 0 0.4416-0.0682 0.6272-0.2037 0.3285-0.2389 0.4928-0.6433 0.4235-1.0433l-0.6527-3.8059 2.7659-2.6956c0.2898-0.2837 0.3944-0.7072 0.2695-1.0934zM59.0223 11.702c-0.2506 0.2443-0.3659 0.5984-0.3061 0.9441l0.3818 2.2282-2.001-1.0517c-0.1557-0.0822-0.3264-0.1227-0.4971-0.1227s-0.3403 0.0405-0.4972 0.1227l-2.0011 1.0517 0.3819-2.2282c0.0597-0.3457-0.0555-0.6987-0.3062-0.9441l-1.6202-1.5786 2.2379-0.3254c0.3477-0.0501 0.6475-0.2687 0.8032-0.5835l1.0006-2.0266 1.0005 2.0266c0.1557 0.3146 0.4555 0.5334 0.8032 0.5835l2.2379 0.3254z" />
    <path d="M52.2669 41.0444h-2.1334v2.1334h2.1334z" />
    <path d="M52.2669 45.3112h-2.1334v2.1334h2.1334z" />
    <path d="M54.4003 43.1778h-2.1334v2.1334h2.1334z" />
    <path d="M50.1337 43.1778h-2.1334v2.1334h2.1334z" />
    <path d="M44.8002 52.778h-2.1334v2.1333h2.1334z" />
    <path d="M44.8002 57.0446h-2.1334v2.1335h2.1334z" />
    <path d="M46.9336 54.9113h-2.1334v2.1335h2.1334z" />
    <path d="M42.6668 54.9113h-2.1334v2.1335h2.1334z" />
    <path d="M32 48.5113h-2.1334v2.1334H32z" />
    <path d="M32 52.778h-2.1334v2.1333H32z" />
    <path d="M34.1334 50.6445H32v2.1334h2.1334z" />
    <path d="M29.8666 50.6445h-2.1334v2.1334h2.1334z" />
    <path d="M11.733 12.2439H9.5996l0 2.1334h2.1334z" />
    <path d="M11.733 16.5108H9.5996l0 2.1334h2.1334z" />
    <path d="M13.8663 14.3774h-2.1334v2.1334h2.1334z" />
    <path d="M9.5996 14.3774H7.4662l0 2.1334h2.1334z" />
    <path fill="var(--color0, #2e2f42)" d="M49.4295 28.3189c-0.5749-0.7755-1.4186-1.2746-2.3765-1.4091-0.9621-0.1365-1.9115 0.1162-2.6796 0.704l-2.5035 1.9189-11e-4 11e-4-3.7953 2.8342-2.7158-1.0816c4.8427-2.1728 8.2274-7.0166 8.2274-12.6402 0-7.646-6.2455-13.8669-13.9224-13.8669-7.6769 0-13.9222 6.2209-13.9222 13.8669 0 2.7713 0.8288 5.3483 2.24 7.5168l-5.5276-0.048c-32e-4 0-63e-4 0-96e-4 0-0.0171 0-0.0309 85e-4-0.0469 97e-4-0.1056 42e-4-0.2091 0.0256-0.3103 0.0618-0.0257 97e-4-0.0523 0.015-0.0768 0.0267-0.0127 53e-4-0.0256 63e-4-0.0384 0.0127l-6.4662 3.1926c-11e-4 0-21e-4 0-21e-4 1e-3l-3.7868 1.821c-0.0416 0.0181-0.0843 0.0426-0.1259 0.0704-1.5094 1.0047-2.0235 2.9781-1.1968 4.5909 0.4405 0.8576 1.1904 1.4892 2.1121 1.7782 0.3552 0.1108 0.7179 0.1653 1.0784 0.1653 0.5792 0 1.1531-0.1418 1.6789-0.4223l2.7755-1.4763 4.5281-2.3382 2.7136-0.016L4.3963 44.4237c-1e-3 11e-4-21e-4 11e-4-32e-4 21e-4l-2.6775 2.6667c-0.6325 0.6294-0.9802 1.4645-0.9802 2.3553 0 0.8896 0.3477 1.7269 0.9802 2.3574 0.6497 0.6464 1.5041 0.9706 2.3585 0.9706 0.8555 0 1.7087-0.3242 2.3605-0.9706l2.6283-2.6177 3.4817-2.5995 1.8016 1.7941-3.5233 3.5083c-1e-3 12e-4-21e-4 12e-4-32e-4 22e-4l-2.6775 2.6666c-0.6325 0.6294-0.9802 1.4645-0.9802 2.3553 0 0.8896 0.3477 1.7269 0.9802 2.3574 0.6497 0.6464 1.5052 0.9707 2.3596 0.9707s1.7099-0.3243 2.3605-0.9707l2.6784-2.6667 4.2849-4.2666c11e-4-12e-4 11e-4-22e-4 21e-4-33e-4l2.0193-2-75e-4-75e-4c0.0127-0.0128 0.0308-0.0172 0.0437-0.0309l10.3319-11.3164 6.942 0.9877c0.0501 75e-4 0.1003 0.0107 0.1504 0.0107 0.1291 0 0.2539-0.0309 0.3744-0.0768 0.0352-0.0127 0.0661-0.0299 0.0992-0.0469 0.0384-0.0192 0.0789-0.0298 0.1153-0.0543l6.4267-4.2667c0.0235-0.016 0.0363-0.0417 0.0586-0.0587 0.0257-0.0202 0.0577-0.0287 0.081-0.0512l2.5429-2.3819c1.3232-1.2398 1.5056-3.2707 0.4239-4.7235zM4.2608 35.5403c-0.3466 0.1856-0.7402 0.2229-1.1168 0.1035-0.3733-0.1163-0.6762-0.3713-0.8533-0.7158-0.3222-0.6272-0.1355-1.391 0.4287-1.8037l2.6273-1.2641 0.6325 1.8486 0.2656 0.7765zM11.2551 31.8849l-3.0966 1.6-0.5109-1.4934-0.3669-1.0731 4.0535-2.0012zM41.4539 18.644c0 1.8368-0.4384 3.5692-1.1979 5.119l-8.3627-3.7984c-0.0876-1.1467-0.6827-2.1504-1.5766-2.7756l2.9281-9.7206c4.7553 1.5126 8.2091 5.9489 8.2091 11.1756zM17.876 18.644c0-6.4694 5.2886-11.7335 11.789-11.7335 0.5056 0 1.0005 0.0426 1.4901 0.1045l-2.864 9.5074c-0.0384-11e-4-0.0747-0.0118-0.1142-0.0118-2.0651 0-3.7451 1.6747-3.7451 3.7335 0 2.0586 1.68 3.7334 3.7451 3.7334 1.3888 0 2.5888-0.7669 3.2363-1.8892l7.7249 3.5095c-2.1494 2.8928-5.5894 4.7798-9.4733 4.7798-6.5002 0-11.7888-5.2641-11.7888-11.7336zM29.7887 20.2441c0 0.8821-0.7232 1.6-1.6118 1.6-0.8885 0-1.6117-0.7179-1.6117-1.6 0-0.8822 0.7232-1.6001 1.6117-1.6001 0.8886 0 1.6118 0.7179 1.6118 1.6001zM4.9297 50.2925c-0.4725 0.4683-1.2374 0.4673-1.7088 11e-4-0.2272-0.2272-0.352-0.5268-0.352-0.8458 0-0.3179 0.1248-0.6177 0.352-0.8427l1.9242-1.9169 1.7024 1.695zM11.3574 57.7594c-0.4725 0.4682-1.2384 0.4694-1.7099 11e-4-0.2272-0.2272-0.352-0.5269-0.352-0.8459 0-0.3179 0.1248-0.6176 0.352-0.8426l1.9254-1.9179 0.8054 0.8011 0.8982 0.8939zM18.3208 50.8217c-11e-4 1e-3-21e-4 1e-3-33e-4 21e-4l-3.5296 3.52-0.8054-0.8011-0.8982-0.8939 3.5265-3.5104c0 0 0 0 0-1e-3 11e-4-11e-4 21e-4-11e-4 32e-4-21e-4 0.08-0.08 0.1301-0.176 0.1793-0.2709 0.0138-0.0278 0.0405-0.0513 0.0522-0.08 0.0331-0.0821 0.0384-0.1706 0.0513-0.2572 63e-4-0.0491 0.0277-0.0948 0.0277-0.1451 0-0.0715-0.0256-0.1407-0.0405-0.2112-0.0127-0.064-0.0127-0.1292-0.0374-0.1909-0.0405-0.1003-0.1098-0.1888-0.1823-0.2753-0.0203-0.0235-0.0278-0.0533-0.0502-0.0757 0 0 0 0-11e-4 0-11e-4-1e-3-11e-4-33e-4-21e-4-43e-4l-3.2139-3.2c-0.0342-0.0341-0.0779-0.048-0.1163-0.0768-0.0565-0.0437-0.1109-0.0842-0.1739-0.1152-0.0607-0.0299-0.1226-0.048-0.1866-0.0651-0.0682-0.0193-0.1344-0.0342-0.2059-0.0395-0.0651-43e-4-0.1259 21e-4-0.1909 96e-4-0.0715 85e-4-0.1386 0.0181-0.208 0.0405-0.0672 0.0214-0.1268 0.0544-0.1887 0.0896-0.0395 0.0224-0.0843 0.0299-0.1216 0.0576L8.4584 46.973 6.6567 45.1788l4.798-4.7723 8.7212 8.5773zM31.9584 36.7883c-0.0309-42e-4-0.0598 75e-4-0.0906 54e-4-0.0779-43e-4-0.1525 11e-4-0.2304 0.0139-0.0608 0.0106-0.1184 0.0223-0.176 0.0426-0.0683 0.0235-0.1302 0.0555-0.1932 0.0939-0.0597 0.0362-0.1141 0.0746-0.1663 0.1226-0.0257 0.0224-0.0565 0.0331-0.08 0.0586l-9.3966 10.2914-8.6561-8.5132 5.6662-5.6364c0.4171-0.416 0.4193-1.0912 33e-4-1.5094-0.2102-0.2101-0.4864-0.3136-0.7627-0.3125v-1e-3l-4.4374 0.0267 0.0555-3.215 6.2081 0.0534c2.5302 2.5878 6.0587 4.2017 9.9628 4.2017 0.8746 0 1.728-0.0906 2.5589-0.2454 0.08 0.064 0.1589 0.1292 0.2592 0.1697l4.8194 1.92 0.305 1.5168 0.3562 1.7706zM40.0406 37.1446l-0.6261-3.1158 2.8928-2.1601 0.7574 1.0048 1.136 1.5083zM47.5479 31.4826l-1.6758 1.5702-1.8624-2.4726 1.6629-1.2746c0.3104-0.2389 0.7019-0.336 1.0859-0.2859 0.3861 0.0544 0.7275 0.256 0.96 0.5685 0.4331 0.5835 0.3595 1.3974-0.1706 1.8944z" />
    <path fill="var(--color0, #2e2f42)" d="M27.2042 37.0881l-4.286-4.2667c-0.4149-0.4149-1.0891-0.4149-1.5051 0l-4.2848 4.2667c-0.2005 0.2016-0.3137 0.4725-0.3137 0.7562 0 0.2838 0.112 0.5558 0.3137 0.7563l4.2848 4.2667c0.208 0.2069 0.4811 0.3104 0.7531 0.3104s0.545-0.1035 0.752-0.3104l4.286-4.2667c0.2005-0.2005 0.3146-0.4725 0.3146-0.7563 0-0.2837-0.1131-0.5557-0.3146-0.7562zM22.1662 40.606l-2.7734-2.7617 2.7734-2.7616 2.7744 2.7616z" />
    <path fill="var(--color0, #2e2f42)" d="M34.3285 10.1415l-0.5152 2.0716c0.1419 0.0352 3.4753 0.9035 3.4753 4.2977h2.1334c-1e-4-4.0343-3.3313-5.9309-5.0935-6.3693z" />
    <path fill="var(--color0, #2e2f42)" d="M39.422 18.644h-2.1334v2.1335h2.1334z" />
</svg>