<svg viewBox="0 0 16 16" fill="none" width="32" height="32" xmlns="http://www.w3.org/2000/svg" xmlns:xlink="http://www.w3.org/1999/xlink">
    <style>
        :root, .palette0 {color: currentColor;
            --color0: #2e2f42;
            --color1: #4d5ae5;
            --color2: #f4f4fd;
        }
    </style>
    <g fill="var(--color2, #f4f4fd)" clip-path="url(#instagram_clip0_1053458_24)">
        <path d="M15.9843 4.704c-0.0375-0.8501-0.175-1.4346-0.3719-1.941-0.2032-0.5376-0.5157-1.0189-0.9252-1.419-0.4001-0.4063-0.8846-0.7221-1.4159-0.922-0.5094-0.197-1.0908-0.3345-1.941-0.3719C10.4738 94e-4 10.2019 0 8.0296 0 5.8573 0 5.5854 94e-4 4.7321 0.0469 3.882 0.0844 3.2975 0.222 2.7912 0.4188 2.2535 0.6219 1.7722 0.9345 1.3721 1.344 0.9658 1.7441 0.6501 2.2286 0.45 2.7599 0.2531 3.2694 0.1156 3.8507 0.0781 4.7009c-0.0406 0.8565-0.05 1.1284-0.05 3.3007 0 2.1723 94e-4 2.4442 0.0469 3.2975 0.0374 0.8501 0.175 1.4346 0.372 1.941 0.2031 0.5376 0.5188 1.0189 0.9251 1.419 0.4001 0.4063 0.8846 0.7221 1.4159 0.9221 0.5095 0.1969 1.0908 0.3344 1.9411 0.3719C5.5823 15.9907 5.8543 16 8.0266 16c2.1723 0 2.4442-93e-4 3.2975-0.0469 0.8501-0.0375 1.4346-0.175 1.9409-0.3719 1.0753-0.4158 1.9254-1.2659 2.3412-2.3411 0.1968-0.5095 0.3344-1.0909 0.3719-1.941 0.0375-0.8533 0.0469-1.1252 0.0469-3.2975 0-2.1723-32e-4-2.4442-0.0407-3.2976zM14.5435 11.2366c-0.0345 0.7814-0.1657 1.2033-0.2751 1.4846-0.2689 0.6971-0.8221 1.2503-1.5191 1.5191-0.2813 0.1094-0.7063 0.2407-1.4847 0.275-0.8439 0.0376-1.097 0.0469-3.2318 0.0469s-2.3911-93e-4-3.232-0.0469c-0.7813-0.0343-1.2033-0.1656-1.4846-0.275-0.3469-0.1282-0.6626-0.3313-0.9189-0.597-0.2657-0.2595-0.4688-0.572-0.597-0.9189-0.1094-0.2813-0.2407-0.7064-0.275-1.4847-0.0376-0.8439-0.0469-1.0971-0.0469-3.2319 0-2.1348 93e-4-2.3911 0.0469-3.2318 0.0343-0.7815 0.1656-1.2034 0.275-1.4847 0.1282-0.347 0.3313-0.6626 0.6002-0.919 0.2593-0.2657 0.5719-0.4689 0.9189-0.5969C3.6007 1.666 4.0258 1.5347 4.804 1.5003 5.6479 1.4628 5.9012 1.4534 8.0359 1.4534c2.1379 0 2.391 94e-4 3.2319 0.0469 0.7814 0.0344 1.2034 0.1657 1.4847 0.2751 0.3468 0.1281 0.6626 0.3312 0.9189 0.5969 0.2656 0.2594 0.4688 0.572 0.597 0.919 0.1094 0.2813 0.2406 0.7063 0.2751 1.4847 0.0375 0.8439 0.0469 1.097 0.0469 3.2318 0 2.1348-94e-4 2.3849-0.0469 3.2288z" />
        <path d="M8.0297 3.8914c-2.2691 0-4.1102 1.8409-4.1102 4.1101 0 2.2693 1.8411 4.1102 4.1102 4.1102 2.2692 0 4.1101-1.8409 4.1101-4.1102 0-2.2692-1.8409-4.1101-4.1101-4.1101zM8.0297 10.6677c-1.4721 0-2.6662-1.1939-2.6662-2.6662 0-1.4722 1.1941-2.6661 2.6662-2.6661 1.4722 0 2.6661 1.1939 2.6661 2.6661 0 1.4723-1.1939 2.6662-2.6661 2.6662z" />
        <path d="M13.262 3.7289c0 0.5299-0.4296 0.9595-0.9596 0.9595-0.5299 0-0.9596-0.4296-0.9596-0.9595 0-0.53 0.4297-0.9596 0.9596-0.9596 0.53 0 0.9596 0.4296 0.9596 0.9596z" />
    </g>
    <defs>
        <clipPath id="instagram_clip0_1053458_24">
            <rect fill="#fff" width="16" height="16" />
        </clipPath>
    </defs>
</svg>