<svg viewBox="0 0 16 16" fill="none" width="32" height="32" xmlns="http://www.w3.org/2000/svg" xmlns:xlink="http://www.w3.org/1999/xlink">
    <style>
        :root, .palette0 {color: currentColor;
            --color0: #2e2f42;
            --color1: #4d5ae5;
            --color2: #f4f4fd;
        }
    </style>
    <g fill="var(--color2, #f4f4fd)" clip-path="url(#linkedin_clip0_1053458_53)">
        <path d="M15.996 16v-6e-4H16v-5.868c0-2.8707-0.618-5.082-3.974-5.082-1.6133 0-2.696 0.8853-3.138 1.7246l-0.0466 0 0-1.4566-3.182 0 0 10.682h3.3133V10.71c0-1.3926 0.264-2.7393 1.9887-2.7393 1.6993 0 1.7246 1.5893 1.7246 2.8287V16z" />
        <path d="M0.264 5.318l3.3173 0 0 10.682H0.264z" />
        <path d="M1.9213 0C0.8607 0 0 0.8607 0 1.9213 0 2.982 0.8607 3.8607 1.9213 3.8607c1.0607 0 1.9214-0.8787 1.9214-1.9394C3.842 0.8607 2.9813 0 1.9213 0z" />
    </g>
    <defs>
        <clipPath id="linkedin_clip0_1053458_53">
            <rect fill="#fff" width="16" height="16" />
        </clipPath>
    </defs>
</svg>