<svg viewBox="0 0 64 50" fill="none" width="40.96" height="32" xmlns="http://www.w3.org/2000/svg" xmlns:xlink="http://www.w3.org/1999/xlink">
    <style>
        :root, .palette0 {color: currentColor;
            --color0: #2e2f42;
            --color1: #4d5ae5;
            --color2: #f4f4fd;
        }
    </style>
    <path fill="var(--color0, #2e2f42)" d="M3.1983 49.0856h51.1732c1.7663 0 3.1984-1.4321 3.1984-3.1983v-4.2645c0-1.7662-1.4321-3.1983-3.1984-3.1983h-1.0661V11.8379l6.0557-5.7366c1.4055 0.6929 3.1067 0.2723 4.0265-0.9974 0.9204-1.2691 0.7913-3.0166-0.305-4.1369-1.0963-1.1202-2.8402-1.2873-4.1296-0.3956-1.2889 0.8922-1.747 2.5835-1.0849 4.0041l-4.5627 4.3254V6.4412c0-1.7662-1.432-3.1983-3.1983-3.1983l-42.6443 0c-1.7663 0-3.1984 1.4321-3.1984 3.1983l0 31.9833H3.1983C1.4321 38.4245 0 39.8566 0 41.6228v4.2645c0 1.7662 1.4321 3.1983 3.1983 3.1983zM60.7682 2.1768c0.5887 0 1.0661 0.4774 1.0661 1.0661 0 0.5888-0.4774 1.0661-1.0661 1.0661-0.5888 0-1.0661-0.4773-1.0661-1.0661 0-0.5887 0.4773-1.0661 1.0661-1.0661zM6.3967 6.4412c0-0.5887 0.4773-1.0661 1.0661-1.0661l42.6443 0c0.5887 0 1.0661 0.4774 1.0661 1.0661v4.4774l-2.1322 2.026V8.5735c0-0.5888-0.4774-1.0662-1.0661-1.0662l-38.3799 0c-0.5888 0-1.0661 0.4774-1.0661 1.0661l0 26.6528c0 0.5887 0.4773 1.0661 1.0661 1.0661h38.3799c0.5887 0 1.0661-0.4774 1.0661-1.0661V15.8774l2.1322-2.0203v24.5674H6.3967zM15.9916 20.3006c-1.4424-41e-4-2.709 0.9568-3.0926 2.3473-0.3837 1.3904 0.2103 2.8651 1.4508 3.6012 1.24 0.7361 2.8199 0.5513 3.8563-0.4518l3.7059 1.8594c0.4305 0.2155 0.9526 0.1145 1.2727-0.2452l7.8777-8.8625 7.7438 5.8027c0.4154 0.3113 0.9954 0.2779 1.3722-0.0786l6.7304-6.3754v16.2624H10.6611V9.6396l36.2477 0v5.3206l-7.543 7.1432-7.8089-5.8543c-0.4435-0.3321-1.0677-0.2696-1.4362 0.1442l-7.9859 8.9854-2.9855-1.4929c0.0219-0.1281 0.0354-0.2572 0.0407-0.3868 0-1.7663-1.4321-3.1984-3.1984-3.1984zM17.0577 23.499c0 0.5887-0.4773 1.0661-1.0661 1.0661-0.5887 0-1.0661-0.4774-1.0661-1.0661 0-0.5888 0.4774-1.0661 1.0661-1.0661 0.5888 0 1.0661 0.4773 1.0661 1.0661zM23.4544 40.5567h10.6611v1.0661c0 0.5888-0.4774 1.0661-1.0661 1.0661h-8.5289c-0.5888 0-1.0661-0.4773-1.0661-1.0661zM2.1322 41.6228c0-0.5887 0.4774-1.0661 1.0661-1.0661h18.1239v1.0661c0 1.7663 1.432 3.1983 3.1983 3.1983h8.5289c1.7662 0 3.1983-1.432 3.1983-3.1983v-1.0661h18.1238c0.5888 0 1.0661 0.4774 1.0661 1.0661v4.2645c0 0.5887-0.4773 1.0661-1.0661 1.0661H3.1983c-0.5887 0-1.0661-0.4774-1.0661-1.0661z" />
</svg>