<svg viewBox="0 0 16 13" fill="none" width="39.384615" height="32" xmlns="http://www.w3.org/2000/svg" xmlns:xlink="http://www.w3.org/1999/xlink">
    <style>
        :root, .palette0 {color: currentColor;
            --color0: #2e2f42;
            --color1: #4d5ae5;
            --color2: #f4f4fd;
        }
    </style>
    <path fill="var(--color2, #f4f4fd)" d="M16 1.539c-0.595 0.261-1.229 0.434-1.89 0.518 0.68-0.406 1.199-1.044 1.443-1.813-0.634 0.378-1.334 0.645-2.08 0.794C12.871 0.397 12.013 0 11.077 0 9.261 0 7.799 1.474 7.799 3.281c0 0.26 0.022 0.51 0.076 0.748-2.727-0.133-5.14-1.44-6.761-3.431-0.283 0.491-0.449 1.053-0.449 1.658 0 1.136 0.585 2.143 1.457 2.726-0.527-0.01-1.044-0.163-1.482-0.404 0 0.01 0 0.023 0 0.036 0 1.594 1.137 2.918 2.628 3.223C3.001 7.91 2.71 7.945 2.408 7.945c-0.21 0-0.422-0.012-0.621-0.056 0.425 1.299 1.631 2.254 3.065 2.285-1.116 0.873-2.533 1.399-4.067 1.399-0.269 0-0.527-0.012-0.785-0.045C1.453 12.465 3.175 13 5.032 13c6.036 0 9.336-5 9.336-9.334 0-0.145-5e-3-0.285-0.012-0.424C15.007 2.78 15.554 2.203 16 1.539z" />
</svg>